<mxfile host="app.diagrams.net" agent="Mozilla/5.0 (Macintosh; Intel Mac OS X 10_15_7) AppleWebKit/537.36 (KHTML, like Gecko) Chrome/127.0.0.0 Safari/537.36" version="24.7.7">
  <diagram id="dM9V2Bz1HvMdEWx6jyEX" name="diagram">
    <mxGraphModel dx="903" dy="1708" grid="1" gridSize="10" guides="1" tooltips="1" connect="1" arrows="1" fold="1" page="1" pageScale="1" pageWidth="1169" pageHeight="827" math="0" shadow="0">
      <root>
        <mxCell id="0" />
        <mxCell id="1" parent="0" />
        <mxCell id="d8R_VPtZPnQb-wezrXx3-42" value="" style="endArrow=classic;html=1;rounded=0;" parent="1" source="d8R_VPtZPnQb-wezrXx3-38" target="d8R_VPtZPnQb-wezrXx3-40" edge="1">
          <mxGeometry width="50" height="50" relative="1" as="geometry">
            <mxPoint x="570" y="790" as="sourcePoint" />
            <mxPoint x="620" y="740" as="targetPoint" />
          </mxGeometry>
        </mxCell>
        <mxCell id="d8R_VPtZPnQb-wezrXx3-56" value="yes" style="edgeLabel;html=1;align=center;verticalAlign=middle;resizable=0;points=[];" parent="d8R_VPtZPnQb-wezrXx3-42" vertex="1" connectable="0">
          <mxGeometry x="-0.2239" y="-3" relative="1" as="geometry">
            <mxPoint x="-3" y="-4" as="offset" />
          </mxGeometry>
        </mxCell>
        <mxCell id="d8R_VPtZPnQb-wezrXx3-1" value="piece inactive" style="rounded=0;whiteSpace=wrap;html=1;" parent="1" vertex="1">
          <mxGeometry x="240" y="440" width="120" height="40" as="geometry" />
        </mxCell>
        <mxCell id="d8R_VPtZPnQb-wezrXx3-2" value="queue empty?" style="rhombus;whiteSpace=wrap;html=1;" parent="1" vertex="1">
          <mxGeometry x="240" y="700" width="120" height="80" as="geometry" />
        </mxCell>
        <mxCell id="d8R_VPtZPnQb-wezrXx3-5" value="consume queue&lt;br&gt;set active" style="ellipse;whiteSpace=wrap;html=1;" parent="1" vertex="1">
          <mxGeometry x="140" y="800" width="120" height="80" as="geometry" />
        </mxCell>
        <mxCell id="d8R_VPtZPnQb-wezrXx3-8" value="" style="endArrow=classic;html=1;rounded=0;" parent="1" source="d8R_VPtZPnQb-wezrXx3-2" target="fRPpE20qmiLavwR9nwTS-5" edge="1">
          <mxGeometry width="50" height="50" relative="1" as="geometry">
            <mxPoint x="230" y="890" as="sourcePoint" />
            <mxPoint x="361.5889360201311" y="769.2711488161049" as="targetPoint" />
          </mxGeometry>
        </mxCell>
        <mxCell id="d8R_VPtZPnQb-wezrXx3-12" value="yes" style="edgeLabel;html=1;align=center;verticalAlign=middle;resizable=0;points=[];" parent="d8R_VPtZPnQb-wezrXx3-8" vertex="1" connectable="0">
          <mxGeometry x="0.0179" y="1" relative="1" as="geometry">
            <mxPoint as="offset" />
          </mxGeometry>
        </mxCell>
        <mxCell id="d8R_VPtZPnQb-wezrXx3-11" value="" style="endArrow=classic;html=1;rounded=0;" parent="1" source="d8R_VPtZPnQb-wezrXx3-2" target="d8R_VPtZPnQb-wezrXx3-5" edge="1">
          <mxGeometry width="50" height="50" relative="1" as="geometry">
            <mxPoint x="280" y="750" as="sourcePoint" />
            <mxPoint x="248.83689185319827" y="812.0223954572616" as="targetPoint" />
          </mxGeometry>
        </mxCell>
        <mxCell id="d8R_VPtZPnQb-wezrXx3-13" value="no" style="edgeLabel;html=1;align=center;verticalAlign=middle;resizable=0;points=[];" parent="d8R_VPtZPnQb-wezrXx3-11" vertex="1" connectable="0">
          <mxGeometry x="0.0953" relative="1" as="geometry">
            <mxPoint y="-1" as="offset" />
          </mxGeometry>
        </mxCell>
        <mxCell id="d8R_VPtZPnQb-wezrXx3-15" value="continue solving" style="ellipse;whiteSpace=wrap;html=1;" parent="1" vertex="1">
          <mxGeometry x="240" y="900" width="120" height="80" as="geometry" />
        </mxCell>
        <mxCell id="d8R_VPtZPnQb-wezrXx3-19" value="" style="endArrow=classic;html=1;rounded=0;" parent="1" target="fRPpE20qmiLavwR9nwTS-5" edge="1">
          <mxGeometry width="50" height="50" relative="1" as="geometry">
            <mxPoint x="400" y="840" as="sourcePoint" />
            <mxPoint x="420" y="920" as="targetPoint" />
          </mxGeometry>
        </mxCell>
        <mxCell id="d8R_VPtZPnQb-wezrXx3-20" value="" style="endArrow=classic;html=1;rounded=0;" parent="1" source="d8R_VPtZPnQb-wezrXx3-5" target="d8R_VPtZPnQb-wezrXx3-15" edge="1">
          <mxGeometry width="50" height="50" relative="1" as="geometry">
            <mxPoint x="30" y="1020" as="sourcePoint" />
            <mxPoint x="180" y="720" as="targetPoint" />
          </mxGeometry>
        </mxCell>
        <mxCell id="d8R_VPtZPnQb-wezrXx3-28" value="piece active with hold" style="rounded=0;whiteSpace=wrap;html=1;fillColor=#dae8fc;strokeColor=#6c8ebf;" parent="1" vertex="1">
          <mxGeometry x="800" y="920" width="120" height="40" as="geometry" />
        </mxCell>
        <mxCell id="d8R_VPtZPnQb-wezrXx3-38" value="is piece&lt;br&gt;placable?" style="rhombus;whiteSpace=wrap;html=1;" parent="1" vertex="1">
          <mxGeometry x="800" y="600" width="120" height="80" as="geometry" />
        </mxCell>
        <mxCell id="d8R_VPtZPnQb-wezrXx3-40" value="place" style="ellipse;whiteSpace=wrap;html=1;" parent="1" vertex="1">
          <mxGeometry x="820" y="520" width="80" height="40" as="geometry" />
        </mxCell>
        <mxCell id="d8R_VPtZPnQb-wezrXx3-41" value="clear lines" style="ellipse;whiteSpace=wrap;html=1;" parent="1" vertex="1">
          <mxGeometry x="820" y="440" width="80" height="40" as="geometry" />
        </mxCell>
        <mxCell id="d8R_VPtZPnQb-wezrXx3-43" value="" style="endArrow=classic;html=1;rounded=0;" parent="1" source="d8R_VPtZPnQb-wezrXx3-40" target="d8R_VPtZPnQb-wezrXx3-41" edge="1">
          <mxGeometry width="50" height="50" relative="1" as="geometry">
            <mxPoint x="810" y="510" as="sourcePoint" />
            <mxPoint x="770" y="510" as="targetPoint" />
          </mxGeometry>
        </mxCell>
        <mxCell id="d8R_VPtZPnQb-wezrXx3-44" value="" style="endArrow=classic;html=1;rounded=0;" parent="1" source="d8R_VPtZPnQb-wezrXx3-41" target="d8R_VPtZPnQb-wezrXx3-92" edge="1">
          <mxGeometry width="50" height="50" relative="1" as="geometry">
            <mxPoint x="650" y="510" as="sourcePoint" />
            <mxPoint x="600" y="500" as="targetPoint" />
          </mxGeometry>
        </mxCell>
        <mxCell id="d8R_VPtZPnQb-wezrXx3-47" value="" style="endArrow=classic;html=1;rounded=0;" parent="1" source="d8R_VPtZPnQb-wezrXx3-15" target="d8R_VPtZPnQb-wezrXx3-28" edge="1">
          <mxGeometry width="50" height="50" relative="1" as="geometry">
            <mxPoint x="640" y="690" as="sourcePoint" />
            <mxPoint x="690" y="640" as="targetPoint" />
          </mxGeometry>
        </mxCell>
        <mxCell id="d8R_VPtZPnQb-wezrXx3-62" value="piece active no hold" style="rounded=0;whiteSpace=wrap;html=1;fillColor=#dae8fc;strokeColor=#6c8ebf;" parent="1" vertex="1">
          <mxGeometry x="800" y="800" width="120" height="40" as="geometry" />
        </mxCell>
        <mxCell id="d8R_VPtZPnQb-wezrXx3-69" value="move" style="ellipse;whiteSpace=wrap;html=1;" parent="1" vertex="1">
          <mxGeometry x="820" y="720" width="80" height="40" as="geometry" />
        </mxCell>
        <mxCell id="d8R_VPtZPnQb-wezrXx3-70" value="" style="endArrow=classic;html=1;rounded=0;startArrow=classic;startFill=1;" parent="1" source="d8R_VPtZPnQb-wezrXx3-62" target="d8R_VPtZPnQb-wezrXx3-69" edge="1">
          <mxGeometry width="50" height="50" relative="1" as="geometry">
            <mxPoint x="950" y="670.0000000000001" as="sourcePoint" />
            <mxPoint x="892.7272727272725" y="638.1818181818182" as="targetPoint" />
            <Array as="points" />
          </mxGeometry>
        </mxCell>
        <mxCell id="d8R_VPtZPnQb-wezrXx3-71" value="don&#39;t&lt;br&gt;switch hold" style="ellipse;whiteSpace=wrap;html=1;" parent="1" vertex="1">
          <mxGeometry x="750" y="855" width="90" height="50" as="geometry" />
        </mxCell>
        <mxCell id="d8R_VPtZPnQb-wezrXx3-73" value="switch hold" style="ellipse;whiteSpace=wrap;html=1;" parent="1" vertex="1">
          <mxGeometry x="880" y="855" width="90" height="50" as="geometry" />
        </mxCell>
        <mxCell id="d8R_VPtZPnQb-wezrXx3-74" value="" style="endArrow=classic;html=1;rounded=0;" parent="1" source="d8R_VPtZPnQb-wezrXx3-28" target="d8R_VPtZPnQb-wezrXx3-71" edge="1">
          <mxGeometry width="50" height="50" relative="1" as="geometry">
            <mxPoint x="1070" y="1030" as="sourcePoint" />
            <mxPoint x="1120" y="980" as="targetPoint" />
          </mxGeometry>
        </mxCell>
        <mxCell id="d8R_VPtZPnQb-wezrXx3-75" value="" style="endArrow=classic;html=1;rounded=0;" parent="1" source="d8R_VPtZPnQb-wezrXx3-28" target="d8R_VPtZPnQb-wezrXx3-73" edge="1">
          <mxGeometry width="50" height="50" relative="1" as="geometry">
            <mxPoint x="1100" y="990" as="sourcePoint" />
            <mxPoint x="1150" y="940" as="targetPoint" />
          </mxGeometry>
        </mxCell>
        <mxCell id="d8R_VPtZPnQb-wezrXx3-76" value="" style="endArrow=classic;html=1;rounded=0;" parent="1" source="d8R_VPtZPnQb-wezrXx3-71" target="d8R_VPtZPnQb-wezrXx3-62" edge="1">
          <mxGeometry width="50" height="50" relative="1" as="geometry">
            <mxPoint x="580" y="830" as="sourcePoint" />
            <mxPoint x="630" y="780" as="targetPoint" />
          </mxGeometry>
        </mxCell>
        <mxCell id="d8R_VPtZPnQb-wezrXx3-77" value="" style="endArrow=classic;html=1;rounded=0;" parent="1" source="d8R_VPtZPnQb-wezrXx3-73" target="d8R_VPtZPnQb-wezrXx3-62" edge="1">
          <mxGeometry width="50" height="50" relative="1" as="geometry">
            <mxPoint x="920" y="870" as="sourcePoint" />
            <mxPoint x="970" y="820" as="targetPoint" />
          </mxGeometry>
        </mxCell>
        <mxCell id="d8R_VPtZPnQb-wezrXx3-79" value="" style="endArrow=classic;html=1;rounded=0;" parent="1" source="d8R_VPtZPnQb-wezrXx3-69" target="d8R_VPtZPnQb-wezrXx3-38" edge="1">
          <mxGeometry width="50" height="50" relative="1" as="geometry">
            <mxPoint x="870" y="710" as="sourcePoint" />
            <mxPoint x="870" y="670" as="targetPoint" />
            <Array as="points" />
          </mxGeometry>
        </mxCell>
        <mxCell id="d8R_VPtZPnQb-wezrXx3-81" value="initial state" style="rounded=0;whiteSpace=wrap;html=1;" parent="1" vertex="1">
          <mxGeometry x="240" y="80" width="120" height="40" as="geometry" />
        </mxCell>
        <mxCell id="d8R_VPtZPnQb-wezrXx3-82" value="" style="endArrow=classic;html=1;rounded=0;startArrow=classic;startFill=1;shape=link;" parent="1" source="fRPpE20qmiLavwR9nwTS-10" target="d8R_VPtZPnQb-wezrXx3-1" edge="1">
          <mxGeometry width="50" height="50" relative="1" as="geometry">
            <mxPoint x="299.68" y="120" as="sourcePoint" />
            <mxPoint x="299.68" y="160" as="targetPoint" />
          </mxGeometry>
        </mxCell>
        <mxCell id="d8R_VPtZPnQb-wezrXx3-92" value="is perfect clear?" style="rhombus;whiteSpace=wrap;html=1;" parent="1" vertex="1">
          <mxGeometry x="660" y="420" width="120" height="80" as="geometry" />
        </mxCell>
        <mxCell id="d8R_VPtZPnQb-wezrXx3-93" value="no" style="endArrow=classic;html=1;rounded=0;" parent="1" source="d8R_VPtZPnQb-wezrXx3-92" target="d8R_VPtZPnQb-wezrXx3-96" edge="1">
          <mxGeometry x="-0.1429" width="50" height="50" relative="1" as="geometry">
            <mxPoint x="540" y="459.9999999999999" as="sourcePoint" />
            <mxPoint x="580" y="450" as="targetPoint" />
            <mxPoint as="offset" />
          </mxGeometry>
        </mxCell>
        <mxCell id="d8R_VPtZPnQb-wezrXx3-94" value="yes&lt;br&gt;" style="endArrow=classic;html=1;rounded=0;" parent="1" source="d8R_VPtZPnQb-wezrXx3-92" target="d8R_VPtZPnQb-wezrXx3-95" edge="1">
          <mxGeometry width="50" height="50" relative="1" as="geometry">
            <mxPoint x="535" y="509.9999999999999" as="sourcePoint" />
            <mxPoint x="580" y="580" as="targetPoint" />
            <mxPoint as="offset" />
          </mxGeometry>
        </mxCell>
        <mxCell id="d8R_VPtZPnQb-wezrXx3-95" value="perfect clear" style="rounded=0;whiteSpace=wrap;html=1;fillColor=#d5e8d4;strokeColor=#82b366;" parent="1" vertex="1">
          <mxGeometry x="660" y="540" width="120" height="40" as="geometry" />
        </mxCell>
        <mxCell id="d8R_VPtZPnQb-wezrXx3-96" value="10 pieces placed?" style="rhombus;whiteSpace=wrap;html=1;" parent="1" vertex="1">
          <mxGeometry x="480" y="420" width="120" height="80" as="geometry" />
        </mxCell>
        <mxCell id="d8R_VPtZPnQb-wezrXx3-97" value="failed perfect clear" style="rounded=0;whiteSpace=wrap;html=1;fillColor=#f8cecc;strokeColor=#b85450;" parent="1" vertex="1">
          <mxGeometry x="480" y="540" width="120" height="40" as="geometry" />
        </mxCell>
        <mxCell id="d8R_VPtZPnQb-wezrXx3-100" value="yes&lt;br&gt;" style="endArrow=classic;html=1;rounded=0;" parent="1" source="d8R_VPtZPnQb-wezrXx3-96" target="d8R_VPtZPnQb-wezrXx3-97" edge="1">
          <mxGeometry width="50" height="50" relative="1" as="geometry">
            <mxPoint x="750" y="509.9999999999999" as="sourcePoint" />
            <mxPoint x="750" y="549.9999999999999" as="targetPoint" />
            <mxPoint as="offset" />
          </mxGeometry>
        </mxCell>
        <mxCell id="d8R_VPtZPnQb-wezrXx3-101" value="no" style="endArrow=classic;html=1;rounded=0;" parent="1" source="d8R_VPtZPnQb-wezrXx3-96" target="d8R_VPtZPnQb-wezrXx3-1" edge="1">
          <mxGeometry x="-0.1429" width="50" height="50" relative="1" as="geometry">
            <mxPoint x="670" y="469.9999999999999" as="sourcePoint" />
            <mxPoint x="600" y="469.9999999999999" as="targetPoint" />
            <mxPoint as="offset" />
          </mxGeometry>
        </mxCell>
        <mxCell id="fRPpE20qmiLavwR9nwTS-3" value="enough pieces&lt;br&gt;for perfect clear?" style="rhombus;whiteSpace=wrap;html=1;" parent="1" vertex="1">
          <mxGeometry x="570" y="270" width="140" height="100" as="geometry" />
        </mxCell>
        <mxCell id="fRPpE20qmiLavwR9nwTS-5" value="set active probabilistically" style="ellipse;whiteSpace=wrap;html=1;fillColor=#dae8fc;strokeColor=#6c8ebf;" parent="1" vertex="1">
          <mxGeometry x="340" y="800" width="120" height="80" as="geometry" />
        </mxCell>
        <mxCell id="fRPpE20qmiLavwR9nwTS-6" value="" style="endArrow=classic;html=1;rounded=0;" parent="1" source="fRPpE20qmiLavwR9nwTS-5" target="d8R_VPtZPnQb-wezrXx3-15" edge="1">
          <mxGeometry width="50" height="50" relative="1" as="geometry">
            <mxPoint x="560" y="940" as="sourcePoint" />
            <mxPoint x="610" y="890" as="targetPoint" />
          </mxGeometry>
        </mxCell>
        <mxCell id="fRPpE20qmiLavwR9nwTS-8" value="" style="endArrow=classic;html=1;rounded=0;" parent="1" source="d8R_VPtZPnQb-wezrXx3-1" target="d8R_VPtZPnQb-wezrXx3-2" edge="1">
          <mxGeometry width="50" height="50" relative="1" as="geometry">
            <mxPoint x="310" y="410" as="sourcePoint" />
            <mxPoint x="310" y="450" as="targetPoint" />
          </mxGeometry>
        </mxCell>
        <mxCell id="fRPpE20qmiLavwR9nwTS-10" value="get final states" style="ellipse;whiteSpace=wrap;html=1;" parent="1" vertex="1">
          <mxGeometry x="240" y="280" width="120" height="80" as="geometry" />
        </mxCell>
        <mxCell id="fRPpE20qmiLavwR9nwTS-11" value="" style="endArrow=classic;html=1;rounded=0;endFill=1;" parent="1" source="d8R_VPtZPnQb-wezrXx3-81" target="fRPpE20qmiLavwR9nwTS-13" edge="1">
          <mxGeometry width="50" height="50" relative="1" as="geometry">
            <mxPoint x="300" y="120" as="sourcePoint" />
            <mxPoint x="300" y="280" as="targetPoint" />
          </mxGeometry>
        </mxCell>
        <mxCell id="fRPpE20qmiLavwR9nwTS-13" value="get user input" style="ellipse;whiteSpace=wrap;html=1;fillColor=#fff2cc;strokeColor=#d6b656;" parent="1" vertex="1">
          <mxGeometry x="240" y="160" width="120" height="80" as="geometry" />
        </mxCell>
        <mxCell id="fRPpE20qmiLavwR9nwTS-14" value="" style="endArrow=classic;html=1;rounded=0;endFill=1;" parent="1" source="fRPpE20qmiLavwR9nwTS-13" target="fRPpE20qmiLavwR9nwTS-10" edge="1">
          <mxGeometry width="50" height="50" relative="1" as="geometry">
            <mxPoint x="310" y="130" as="sourcePoint" />
            <mxPoint x="310" y="170" as="targetPoint" />
          </mxGeometry>
        </mxCell>
        <mxCell id="fRPpE20qmiLavwR9nwTS-15" value="" style="endArrow=classic;html=1;rounded=0;startArrow=none;" parent="1" source="fRPpE20qmiLavwR9nwTS-20" target="fRPpE20qmiLavwR9nwTS-3" edge="1">
          <mxGeometry width="50" height="50" relative="1" as="geometry">
            <mxPoint x="560" y="520" as="sourcePoint" />
            <mxPoint x="610" y="470" as="targetPoint" />
          </mxGeometry>
        </mxCell>
        <mxCell id="fRPpE20qmiLavwR9nwTS-16" value="no" style="endArrow=classic;html=1;rounded=0;" parent="1" source="fRPpE20qmiLavwR9nwTS-3" target="fRPpE20qmiLavwR9nwTS-19" edge="1">
          <mxGeometry width="50" height="50" relative="1" as="geometry">
            <mxPoint x="530" y="330" as="sourcePoint" />
            <mxPoint x="630" y="230" as="targetPoint" />
          </mxGeometry>
        </mxCell>
        <mxCell id="fRPpE20qmiLavwR9nwTS-17" value="yes" style="endArrow=classic;html=1;rounded=0;" parent="1" source="fRPpE20qmiLavwR9nwTS-3" target="fRPpE20qmiLavwR9nwTS-18" edge="1">
          <mxGeometry width="50" height="50" relative="1" as="geometry">
            <mxPoint x="604.792899408284" y="305.1479289940828" as="sourcePoint" />
            <mxPoint x="720" y="240" as="targetPoint" />
          </mxGeometry>
        </mxCell>
        <mxCell id="fRPpE20qmiLavwR9nwTS-18" value="play to perfect clear" style="ellipse;whiteSpace=wrap;html=1;" parent="1" vertex="1">
          <mxGeometry x="500" y="160" width="120" height="80" as="geometry" />
        </mxCell>
        <mxCell id="fRPpE20qmiLavwR9nwTS-19" value="advance one step" style="ellipse;whiteSpace=wrap;html=1;" parent="1" vertex="1">
          <mxGeometry x="660" y="160" width="120" height="80" as="geometry" />
        </mxCell>
        <mxCell id="fRPpE20qmiLavwR9nwTS-20" value="select best path to perfect clear" style="ellipse;whiteSpace=wrap;html=1;" parent="1" vertex="1">
          <mxGeometry x="400" y="280" width="120" height="80" as="geometry" />
        </mxCell>
        <mxCell id="fRPpE20qmiLavwR9nwTS-21" value="" style="endArrow=classic;html=1;rounded=0;endFill=1;" parent="1" source="fRPpE20qmiLavwR9nwTS-10" target="fRPpE20qmiLavwR9nwTS-20" edge="1">
          <mxGeometry width="50" height="50" relative="1" as="geometry">
            <mxPoint x="360" y="320" as="sourcePoint" />
            <mxPoint x="550" y="320" as="targetPoint" />
          </mxGeometry>
        </mxCell>
        <mxCell id="fRPpE20qmiLavwR9nwTS-22" value="" style="endArrow=classic;html=1;curved=1;" parent="1" source="fRPpE20qmiLavwR9nwTS-19" target="fRPpE20qmiLavwR9nwTS-13" edge="1">
          <mxGeometry width="50" height="50" relative="1" as="geometry">
            <mxPoint x="520" y="280" as="sourcePoint" />
            <mxPoint x="570" y="230" as="targetPoint" />
            <Array as="points">
              <mxPoint x="520" y="90" />
            </Array>
          </mxGeometry>
        </mxCell>
        <mxCell id="fRPpE20qmiLavwR9nwTS-24" value="" style="endArrow=classic;html=1;rounded=0;" parent="1" source="fRPpE20qmiLavwR9nwTS-18" target="fRPpE20qmiLavwR9nwTS-13" edge="1">
          <mxGeometry width="50" height="50" relative="1" as="geometry">
            <mxPoint x="390" y="270" as="sourcePoint" />
            <mxPoint x="440" y="220" as="targetPoint" />
          </mxGeometry>
        </mxCell>
      </root>
    </mxGraphModel>
  </diagram>
</mxfile>
